<?xml version="1.0" standalone="no"?>
<!DOCTYPE svg PUBLIC "-//W3C//DTD SVG 20010904//EN"
 "http://www.w3.org/TR/2001/REC-SVG-20010904/DTD/svg10.dtd">
<svg version="1.0" xmlns="http://www.w3.org/2000/svg"
 width="512.000000pt" height="512.000000pt" viewBox="0 0 512.000000 512.000000"
 preserveAspectRatio="xMidYMid meet">
<metadata>
Created by potrace 1.14, written by Peter Selinger 2001-2017
</metadata>
<g transform="translate(0.000000,512.000000) scale(0.100000,-0.100000)"
fill="#000000" stroke="none">
<path d="M0 2560 l0 -2560 2560 0 2560 0 0 2560 0 2560 -2560 0 -2560 0 0
-2560z m2242 1538 c38 -120 58 -207 68 -300 5 -46 14 -108 19 -138 5 -30 10
-90 10 -132 1 -61 4 -78 16 -78 14 0 35 56 35 98 0 27 33 62 59 62 17 0 81
-61 81 -78 0 -4 8 -12 19 -19 18 -11 18 -8 16 70 -2 91 -25 156 -78 216 -51
60 -60 93 -61 240 -1 89 3 135 10 138 7 2 13 -27 18 -84 3 -47 8 -89 11 -91 2
-3 16 4 31 14 30 21 38 27 107 67 51 30 80 28 51 -4 -9 -11 -52 -39 -94 -63
-42 -24 -82 -51 -89 -60 -19 -23 -5 -69 37 -124 20 -26 46 -67 57 -91 l22 -44
22 36 c27 45 164 164 169 148 4 -13 -79 -115 -112 -137 -39 -25 -85 -131 -77
-174 2 -8 6 -35 10 -59 5 -40 9 -45 46 -58 22 -8 60 -12 85 -11 41 3 45 5 51
35 3 17 19 49 36 70 28 36 29 40 16 77 -41 121 104 237 281 223 140 -11 206
-64 206 -165 0 -32 -6 -62 -16 -77 -9 -14 -12 -25 -6 -25 21 0 66 -88 104
-204 37 -114 39 -127 36 -221 -2 -79 -8 -110 -26 -146 -25 -52 -54 -89 -69
-89 -6 0 -16 -7 -23 -14 -12 -15 -77 -39 -139 -51 -57 -12 -32 16 38 41 83 30
135 67 158 112 25 51 24 251 -1 336 -41 134 -83 199 -155 235 -51 27 -54 46
-6 38 45 -7 65 12 64 61 l-1 37 -10 -32 c-7 -20 -18 -33 -28 -33 -14 0 -16 8
-12 49 4 43 1 53 -21 75 -24 24 -34 26 -105 26 -47 0 -94 -6 -115 -15 -76 -32
-126 -98 -113 -150 6 -23 10 -25 46 -19 32 5 40 3 40 -9 0 -8 -12 -20 -27 -26
-76 -32 -124 -110 -109 -181 6 -35 -17 -42 -33 -11 -9 15 -25 19 -84 22 -52 3
-81 10 -102 24 -15 11 -38 27 -51 35 -13 8 -39 36 -59 63 -41 53 -62 60 -70
20 -24 -125 -35 -146 -74 -141 -26 3 -26 5 -44 148 -9 80 -20 173 -23 208 -4
34 -10 62 -15 62 -4 0 -24 -9 -43 -21 -29 -17 -173 -59 -286 -84 -42 -9 95 53
167 76 38 12 79 29 93 39 14 9 33 20 43 23 9 4 20 14 24 22 4 13 -23 134 -63
273 -3 12 -2 22 3 22 5 0 21 -37 35 -82z m1006 -605 c37 -43 80 -138 69 -150
-14 -13 -35 8 -60 59 -15 29 -47 75 -72 101 -25 27 -45 55 -45 62 0 23 64 -20
108 -72z m-1405 -20 c39 -32 129 -97 200 -145 l130 -86 71 25 c75 27 126 50
163 73 28 18 53 -1 53 -40 0 -21 -11 -37 -45 -64 -25 -21 -45 -41 -45 -44 0
-4 17 -16 38 -27 40 -21 115 -75 120 -87 7 -15 29 -8 49 15 12 12 31 51 42 87
28 86 41 105 41 62 0 -39 -19 -123 -31 -136 -16 -18 -9 -26 19 -26 17 0 38 10
52 25 38 40 53 32 29 -15 -17 -33 -20 -50 -14 -107 13 -136 53 -206 96 -167
13 11 17 24 13 40 -5 20 1 17 42 -21 27 -24 46 -47 42 -50 -3 -4 -35 -8 -70
-11 -55 -4 -69 -1 -91 16 -31 25 -55 95 -64 192 l-6 68 -41 0 c-23 0 -46 -4
-52 -8 -12 -8 -25 -55 -25 -87 0 -12 -18 -40 -40 -64 -27 -31 -36 -48 -29 -55
5 -5 10 -18 10 -28 0 -11 9 -29 21 -41 34 -37 109 -196 109 -233 0 -41 -17
-45 -26 -6 -9 34 -79 166 -111 210 -14 18 -35 37 -47 42 -103 39 -247 106
-284 132 -25 17 -80 65 -122 107 -42 42 -104 96 -138 120 -35 24 -60 46 -58
49 10 10 160 -93 220 -150 33 -33 85 -76 114 -95 49 -34 242 -123 265 -123 6
0 -15 18 -45 40 -55 39 -75 64 -59 74 4 3 31 -11 59 -30 36 -26 56 -34 72 -29
30 10 21 25 -32 55 -26 14 -50 28 -54 33 -12 12 20 8 66 -8 23 -8 49 -15 56
-15 24 0 15 20 -17 38 -43 23 -87 61 -72 62 7 0 35 -9 63 -19 45 -17 50 -18
50 -3 -1 17 -15 29 -143 124 l-68 50 50 47 c68 63 70 91 4 53 -58 -35 -210
-85 -226 -75 -7 4 -33 23 -59 42 -25 20 -72 52 -104 71 -56 34 -238 199 -220
200 5 0 40 -26 79 -57z m1087 36 c0 -6 -9 -22 -20 -36 -12 -16 -20 -41 -20
-64 0 -51 -26 -54 -35 -5 -8 39 0 73 23 99 17 19 52 23 52 6z m79 -187 c46
-92 60 -167 31 -167 -9 0 -17 15 -22 42 -4 23 -14 54 -23 70 -12 22 -14 23
-10 6 8 -29 -3 -63 -19 -63 -9 0 -13 13 -12 38 1 31 -3 38 -21 40 -26 4 -75
-20 -103 -51 -17 -17 -20 -29 -15 -59 8 -45 -7 -51 -24 -10 -17 42 -4 80 38
107 56 38 96 49 122 35 20 -11 21 -10 15 6 -13 31 -19 94 -10 93 5 0 29 -39
53 -87z m98 -75 c31 -61 30 -132 -2 -132 -18 0 -20 6 -17 46 2 33 -4 64 -22
107 -14 34 -26 65 -26 69 1 15 42 -41 67 -90z m-173 7 c11 -30 6 -41 -36 -68
-27 -17 -45 -23 -51 -17 -12 12 11 37 47 51 25 9 36 30 16 30 -5 0 -10 5 -10
10 0 16 27 11 34 -6z m362 -42 c39 -25 56 -149 29 -202 -29 -56 -50 -34 -35
37 10 46 4 111 -15 156 -7 18 2 22 21 9z m-212 -251 c28 -25 48 -68 35 -77
-10 -6 -48 30 -49 46 0 3 -14 14 -30 24 -17 9 -28 22 -24 27 7 12 43 2 68 -20z
m-74 -55 c0 -7 9 -21 20 -31 14 -12 17 -22 10 -29 -19 -19 -71 49 -55 74 8 13
25 3 25 -14z m100 -50 c0 -11 -111 -116 -123 -116 -17 0 -57 45 -57 65 0 22
13 18 40 -10 l24 -25 44 45 c36 37 72 58 72 41z m-1159 -241 c37 -8 86 -15
110 -15 54 -1 70 -9 155 -84 55 -50 73 -74 106 -144 21 -46 55 -108 75 -138
36 -54 38 -72 8 -61 -22 9 -92 124 -107 177 -17 61 -155 197 -208 205 -35 6
-120 22 -255 50 -38 8 -91 18 -117 21 -45 6 -62 18 -37 26 15 5 190 -19 270
-37z m-389 -756 c20 -5 46 -17 58 -27 20 -16 21 -21 10 -43 -7 -13 -14 -25
-15 -27 -1 -1 -24 9 -50 23 -55 29 -130 33 -174 10 -32 -16 -41 -33 -41 -76 0
-38 23 -52 145 -85 78 -21 107 -34 133 -59 30 -29 33 -36 33 -94 1 -73 -15
-97 -88 -132 -81 -39 -233 -15 -305 48 -15 13 -15 17 0 43 16 28 17 28 42 10
66 -47 175 -63 236 -34 89 42 30 135 -98 155 -109 17 -178 73 -178 143 0 39
35 111 64 129 51 34 135 40 228 16z m444 10 c55 -10 124 -42 124 -57 0 -4 -9
-18 -19 -31 l-18 -24 -33 23 c-23 16 -51 24 -99 27 -57 4 -70 2 -93 -17 -22
-17 -28 -30 -28 -60 0 -50 14 -60 142 -96 80 -23 109 -36 135 -62 30 -30 33
-38 33 -92 0 -55 -3 -62 -36 -94 -47 -46 -90 -59 -177 -54 -52 3 -88 11 -130
31 -67 32 -75 45 -51 82 15 23 18 24 34 10 33 -29 131 -57 187 -53 64 6 93 28
93 73 0 48 -42 78 -132 95 -74 14 -152 54 -166 85 -36 79 11 185 91 205 23 6
47 13 52 15 17 6 30 5 91 -6z m1056 -2 c33 -8 61 -26 93 -55 25 -24 45 -47 45
-51 0 -4 -13 -14 -29 -24 -28 -16 -29 -16 -54 13 -61 68 -152 79 -222 26 -46
-35 -66 -76 -72 -145 -7 -74 9 -128 50 -173 55 -60 122 -70 210 -33 14 6 17 2
17 -29 0 -33 -4 -39 -35 -52 -114 -47 -254 29 -306 168 -54 146 28 321 167
354 62 15 78 15 136 1z m-2866 -62 c19 -33 41 -75 50 -94 8 -18 27 -50 41 -72
25 -37 25 -38 7 -68 -10 -17 -21 -31 -24 -31 -4 0 -22 27 -41 60 -19 33 -44
77 -56 98 l-22 37 -1 -203 0 -203 -32 3 -33 3 -3 268 -2 268 41 -3 c39 -3 43
-6 75 -63z m424 -199 c0 -287 2 -276 -56 -276 l-24 0 -2 201 -3 201 -40 -73
c-22 -40 -52 -94 -67 -120 -58 -106 -81 -126 -108 -94 -16 19 -19 14 130 275
24 41 51 92 62 113 17 34 22 37 63 37 l45 0 0 -264z m360 249 c0 -8 -5 -27
-11 -42 -28 -69 -49 -122 -70 -173 -22 -55 -51 -130 -93 -245 -21 -57 -23 -60
-59 -63 -31 -3 -37 0 -37 15 0 11 4 23 9 29 5 5 18 34 29 64 21 56 87 217 115
280 8 19 25 61 37 93 20 51 25 57 51 57 19 0 29 -5 29 -15z m1500 10 c0 -2 -4
-14 -9 -27 -5 -13 -24 -61 -41 -108 -34 -91 -67 -173 -123 -310 -36 -86 -53
-101 -93 -86 -12 5 -12 10 0 38 7 18 27 67 44 108 67 169 96 238 123 301 16
36 29 71 29 77 0 7 15 12 35 12 19 0 35 -2 35 -5z m1220 -25 l0 -30 -139 0
-140 0 -3 -52 -3 -53 -37 -3 -38 -3 0 85 0 86 180 0 180 0 0 -30z m382 -147
c4 -166 6 -181 29 -220 16 -29 36 -47 62 -58 31 -12 37 -20 37 -44 0 -17 -4
-33 -10 -36 -15 -9 -97 31 -126 62 -57 60 -64 92 -64 291 l0 182 34 0 34 0 4
-177z m387 0 c-4 -174 -5 -179 -34 -238 -23 -45 -41 -66 -75 -87 -66 -40 -84
-40 -88 -1 -3 28 1 34 35 52 69 35 77 61 81 269 l4 182 40 0 40 0 -3 -177z
m211 69 l0 -108 -35 -34 -35 -34 0 142 0 142 35 0 35 0 0 -108z m319 71 c-19
-21 -67 -73 -107 -116 l-71 -78 30 -42 c43 -61 67 -93 132 -174 31 -39 57 -76
57 -82 0 -12 -59 -15 -75 -3 -6 4 -35 41 -65 82 -30 41 -63 84 -72 94 -10 11
-18 23 -18 26 0 4 -9 17 -19 29 l-19 22 -46 -48 -46 -48 0 -83 0 -83 -32 3
-33 3 -3 87 c-3 84 -2 87 26 115 16 15 64 66 107 113 202 218 204 220 248 220
l41 0 -35 -37z m-3919 -188 c18 -44 45 -109 60 -145 16 -36 32 -77 36 -93 3
-15 10 -30 15 -33 5 -3 9 -14 9 -25 0 -17 -6 -20 -36 -17 -34 3 -37 6 -68 78
l-32 75 -82 3 c-84 3 -91 7 -76 46 5 12 21 16 75 16 68 0 69 1 58 21 -30 57
-57 152 -49 172 5 12 11 31 15 42 8 23 17 5 75 -140z m1467 65 c17 -41 47
-114 67 -161 20 -47 36 -89 36 -93 0 -3 11 -29 25 -57 13 -29 22 -56 19 -60
-3 -5 -20 -9 -38 -9 -29 0 -35 5 -46 33 -6 17 -21 53 -33 80 l-20 47 -84 0
c-46 0 -83 2 -83 5 0 2 5 15 11 29 11 22 19 25 75 28 l63 3 -34 83 c-33 81
-33 83 -18 122 9 23 19 37 23 33 3 -4 20 -42 37 -83z m1113 -100 l0 -30 -120
0 -119 0 -3 -57 -3 -58 -35 0 -35 0 -3 88 -3 87 161 0 160 0 0 -30z m-450
-141 l0 -140 -27 3 -28 3 -3 108 -3 107 -59 0 c-56 0 -60 1 -60 23 0 13 3 27
7 30 3 4 44 7 90 7 l83 0 0 -141z m498 -101 l-3 -33 -180 0 -180 0 -3 33 -3
32 186 0 186 0 -3 -32z m-3520 -244 c12 -8 20 -20 17 -25 -4 -5 -15 -3 -28 6
-29 20 -54 19 -66 -3 -13 -24 -3 -37 42 -51 49 -16 71 -49 57 -85 -11 -30 -52
-50 -84 -40 -29 9 -57 35 -50 46 3 5 14 2 24 -7 11 -10 31 -15 52 -13 27 2 34
8 36 28 2 21 -5 29 -50 50 -42 20 -54 30 -56 52 -6 48 60 75 106 42z m1387
-54 c33 13 81 -6 89 -33 9 -36 7 -107 -4 -107 -5 0 -10 15 -10 34 0 75 -33
109 -76 81 -20 -13 -24 -24 -24 -65 0 -28 -4 -50 -10 -50 -12 0 -14 193 -2
204 4 4 8 -10 10 -33 3 -38 4 -40 27 -31z m815 5 l27 -46 26 40 c15 22 27 45
27 50 0 5 7 11 15 15 20 7 19 -16 -2 -45 -36 -49 -53 -88 -53 -123 0 -20 -4
-36 -10 -36 -5 0 -10 16 -10 35 0 23 -13 54 -40 96 -22 34 -37 66 -34 71 8 13
21 -1 54 -57z m1575 53 c14 -6 25 -17 25 -25 0 -18 -10 -16 -32 4 -14 13 -25
15 -46 7 -41 -14 -35 -44 12 -60 57 -20 67 -32 64 -73 -2 -26 -10 -39 -30 -50
-24 -14 -30 -14 -62 2 -20 9 -36 24 -36 33 0 16 1 16 19 0 12 -11 31 -16 53
-14 27 2 34 8 36 29 3 23 -3 29 -47 46 -57 24 -71 51 -47 88 18 27 50 32 91
13z m1055 -85 c0 -70 3 -88 18 -99 16 -13 16 -13 -3 -14 -37 0 -45 20 -45 110
0 48 3 90 6 93 17 16 24 -11 24 -90z m-3770 52 c0 -18 5 -25 20 -25 11 0 20
-4 20 -10 0 -5 -9 -10 -20 -10 -17 0 -20 -7 -20 -39 0 -31 6 -44 28 -60 l27
-20 -27 -1 c-33 0 -48 24 -48 76 0 23 -6 42 -17 50 -17 13 -17 13 0 14 11 0
17 8 17 25 0 14 5 25 10 25 6 0 10 -11 10 -25z m-691 -30 c72 -37 45 -135 -38
-135 -46 0 -71 24 -71 70 0 36 17 61 50 73 24 9 29 8 59 -8z m404 -12 c26 -24
23 -88 -5 -107 -51 -36 -128 -5 -128 52 0 69 80 102 133 55z m1065 0 c6 -9 12
-27 12 -40 0 -21 -4 -23 -55 -23 -30 0 -55 -4 -55 -9 0 -20 31 -33 65 -28 35
6 48 -6 19 -17 -29 -11 -67 -6 -86 11 -18 16 -25 77 -10 99 24 35 85 39 110 7z
m769 16 c15 -5 31 -16 35 -22 13 -20 9 -71 -8 -95 -23 -33 -89 -28 -117 9 -25
35 -16 84 21 104 33 17 34 18 69 4z m746 4 c4 -4 -6 -12 -23 -19 -28 -12 -30
-16 -30 -69 0 -42 -3 -55 -15 -55 -12 0 -15 15 -15 71 0 65 2 71 19 66 10 -2
25 -1 32 4 17 11 24 11 32 2z m790 -4 c49 -22 59 -85 21 -123 -24 -25 -90 -21
-108 6 -32 45 -15 103 34 121 23 8 27 8 53 -4z m-1233 -33 c0 -59 15 -86 49
-86 37 0 51 23 51 79 0 23 5 41 10 41 6 0 10 -30 10 -69 0 -60 -2 -70 -17 -69
-10 0 -30 -3 -45 -7 -21 -5 -32 -2 -52 19 -21 20 -26 35 -26 76 0 27 5 50 10
50 6 0 10 -15 10 -34z m1540 -14 c0 -52 12 -72 45 -72 33 0 45 20 45 72 0 26
5 48 10 48 6 0 10 -30 10 -70 0 -51 -3 -70 -12 -68 -7 1 -23 -1 -35 -6 -14 -4
-33 -1 -53 9 -28 15 -30 19 -30 75 0 33 4 60 10 60 6 0 10 -22 10 -48z"/>
<path d="M490 1040 c-23 -23 -25 -47 -6 -72 15 -21 56 -24 74 -6 20 20 15 76
-7 88 -28 14 -38 13 -61 -10z"/>
<path d="M878 1049 c-24 -13 -25 -84 -2 -93 28 -11 57 -6 70 12 19 25 17 49
-6 72 -22 22 -37 24 -62 9z"/>
<path d="M1952 1044 c-34 -23 -27 -34 23 -34 49 0 55 8 27 33 -23 21 -22 21
-50 1z"/>
<path d="M2732 1040 c-26 -25 -27 -38 -6 -68 20 -28 69 -30 84 -3 16 31 12 59
-12 75 -29 21 -40 20 -66 -4z"/>
<path d="M4272 1044 c-24 -16 -28 -44 -12 -75 21 -39 100 -12 100 34 0 20 -34
57 -53 57 -7 0 -23 -7 -35 -16z"/>
</g>
</svg>
